<svg>
    <defs>
        <symbol id="icon-delete" xmlns="http://www.w3.org/2000/svg"  viewBox="0 0 26 30">
            <path d="M21 30H5C4.20435 30 3.44129 29.6839 2.87868 29.1213C2.31607 28.5587 2 27.7956 2 27V8C2 7.73478 2.10536 7.48043 2.29289 7.29289C2.48043 7.10536 2.73478 7 3 7C3.26522 7 3.51957 7.10536 3.70711 7.29289C3.89464 7.48043 4 7.73478 4 8V27C4 27.2652 4.10536 27.5196 4.29289 27.7071C4.48043 27.8946 4.73478 28 5 28H21C21.2652 28 21.5196 27.8946 21.7071 27.7071C21.8946 27.5196 22 27.2652 22 27V8C22 7.73478 22.1054 7.48043 22.2929 7.29289C22.4804 7.10536 22.7348 7 23 7C23.2652 7 23.5196 7.10536 23.7071 7.29289C23.8946 7.48043 24 7.73478 24 8V27C24 27.7956 23.6839 28.5587 23.1213 29.1213C22.5587 29.6839 21.7956 30 21 30V30Z"/>
            <path d="M25 6H1C0.734784 6 0.48043 5.89464 0.292893 5.70711C0.105357 5.51957 0 5.26522 0 5C0 4.73478 0.105357 4.48043 0.292893 4.29289C0.48043 4.10536 0.734784 4 1 4H25C25.2652 4 25.5196 4.10536 25.7071 4.29289C25.8946 4.48043 26 4.73478 26 5C26 5.26522 25.8946 5.51957 25.7071 5.70711C25.5196 5.89464 25.2652 6 25 6Z" />
            <path d="M17 6C16.7348 6 16.4804 5.89464 16.2929 5.70711C16.1054 5.51957 16 5.26522 16 5V2H10V5C10 5.26522 9.89464 5.51957 9.70711 5.70711C9.51957 5.89464 9.26522 6 9 6C8.73478 6 8.48043 5.89464 8.29289 5.70711C8.10536 5.51957 8 5.26522 8 5V1C8 0.734784 8.10536 0.48043 8.29289 0.292893C8.48043 0.105357 8.73478 0 9 0H17C17.2652 0 17.5196 0.105357 17.7071 0.292893C17.8946 0.48043 18 0.734784 18 1V5C18 5.26522 17.8946 5.51957 17.7071 5.70711C17.5196 5.89464 17.2652 6 17 6Z"/>
            <path d="M13 25C12.7348 25 12.4804 24.8946 12.2929 24.7071C12.1054 24.5196 12 24.2652 12 24V10C12 9.73478 12.1054 9.48043 12.2929 9.29289C12.4804 9.10536 12.7348 9 13 9C13.2652 9 13.5196 9.10536 13.7071 9.29289C13.8946 9.48043 14 9.73478 14 10V24C14 24.2652 13.8946 24.5196 13.7071 24.7071C13.5196 24.8946 13.2652 25 13 25Z"/>
            <path d="M18 23C17.7348 23 17.4804 22.8946 17.2929 22.7071C17.1054 22.5196 17 22.2652 17 22V12C17 11.7348 17.1054 11.4804 17.2929 11.2929C17.4804 11.1054 17.7348 11 18 11C18.2652 11 18.5196 11.1054 18.7071 11.2929C18.8946 11.4804 19 11.7348 19 12V22C19 22.2652 18.8946 22.5196 18.7071 22.7071C18.5196 22.8946 18.2652 23 18 23Z"/>
            <path d="M8 23C7.73478 23 7.48043 22.8946 7.29289 22.7071C7.10536 22.5196 7 22.2652 7 22V12C7 11.7348 7.10536 11.4804 7.29289 11.2929C7.48043 11.1054 7.73478 11 8 11C8.26522 11 8.51957 11.1054 8.70711 11.2929C8.89464 11.4804 9 11.7348 9 12V22C9 22.2652 8.89464 22.5196 8.70711 22.7071C8.51957 22.8946 8.26522 23 8 23Z"/>
        </symbol>

        <symbol id="icon-checked" viewBox="0 0 30 30" xmlns="http://www.w3.org/2000/svg">
            <rect x="8.34607" y="21.719" width="23.301" height="2.91262" rx="1.45631" transform="rotate(-45 8.34607 21.719)" />
            <rect x="10.2592" y="23.7785" width="8.73786" height="2.91262" rx="1.45631" transform="rotate(-135 10.2592 23.7785)"/>
        </symbol>

        <symbol id="icon-checkbox" viewBox="0 0 30 30" xmlns="http://www.w3.org/2000/svg">
            <!-- <path d="M0.58252 1.45631C0.58252 0.652013 1.23453 0 2.03883 0H28.2524C29.0567 0 29.7087 0.652013 29.7087 1.45631V1.45631H0.58252V1.45631Z" /> -->
            <path d="M28.5437 29.1262L28.5437 7.62939e-06V7.62939e-06C29.348 7.62939e-06 30 0.65202 30 1.45632V27.6699C30 28.4742 29.348 29.1262 28.5437 29.1262V29.1262Z" />
            <path d="M0.58252 27.6699H29.7087V27.6699C29.7087 28.4742 29.0567 29.1262 28.2524 29.1262H2.03883C1.23453 29.1262 0.58252 28.4742 0.58252 27.6699V27.6699Z" />
            <!-- <path d="M2.03883 29.1262C1.23453 29.1262 0.58252 28.4742 0.58252 27.6699L0.58252 1.58253C0.58252 0.778232 1.23453 0.126221 2.03883 0.126221V0.126221L2.03883 29.1262V29.1262Z" /> -->
        </symbol>

        <symbol id="icon-plus" viewBox="0 0 24 24" xmlns="http://www.w3.org/2000/svg">
            <path d="M12 2a9.95 9.95 0 014.473 1.055l-.895 1.791A7.949 7.949 0 0012 4c-4.41 0-8 3.59-8 8s3.59 8 8 8c1.09 0 2.129-.22 3.076-.615l.771 1.847A9.962 9.962 0 0112 22C6.48 22 2 17.52 2 12S6.48 2 12 2zm9 10v3h3v2h-3v3h-2v-3h-3v-2h3v-3h2zm-.4-8.4L22 5 11 16l-4-4 1.4-1.4 2.6 2.6 9.6-9.6z"/>
        </symbol>

        <symbol id="icon-edit" viewBox="0 0 39 30" xmlns="http://www.w3.org/2000/svg">
            <path d="M2.80899 26.5C3.80904 19.5 6.39586 18 11.3091 14.5L14.5907 16.4485L12.8091 17.5L9.98937 18.7651L6.39583 23.8869L5.80909 27L4.4206 29.6904L3.30909 29L2.80899 26.5Z"/>
            <path d="M2.80908 27C2.80908 27 12.7757 27 14.5091 27C16.2424 27 16.2424 30 14.5091 30C12.7757 30 2.80908 30 2.80908 30V28.5V27Z"/>
            <path fill-rule="evenodd" clip-rule="evenodd" d="M19.3091 28V29L20.3091 30L27.8091 28L38.8091 16.5V15L33.8091 10H32.8091L21.3091 21.5L19.3091 28ZM26.3091 25L23.3091 25.5L24.3091 23L33.3091 14L35 15.5L26.3091 25Z"/>
        <path d="M26 8.5C26 13.1944 22.1944 17 17.5 17C12.8056 17 9 13.1944 9 8.5C9 3.80558 12.8056 0 17.5 0C22.1944 0 26 3.80558 26 8.5ZM11.4478 8.5C11.4478 11.8426 14.1574 14.5522 17.5 14.5522C20.8426 14.5522 23.5522 11.8426 23.5522 8.5C23.5522 5.15744 20.8426 2.44775 17.5 2.44775C14.1574 2.44775 11.4478 5.15744 11.4478 8.5Z"/>
        </symbol>

        <symbol id="icon-close" viewBox="0 0 31 31" xmlns="http://www.w3.org/2000/svg">
            <path d="M31 15.5C31 24.0604 24.0604 31 15.5 31C6.93959 31 0 24.0604 0 15.5C0 6.93959 6.93959 0 15.5 0C24.0604 0 31 6.93959 31 15.5ZM1.00336 15.5C1.00336 23.5063 7.49373 29.9966 15.5 29.9966C23.5063 29.9966 29.9966 23.5063 29.9966 15.5C29.9966 7.49373 23.5063 1.00336 15.5 1.00336C7.49373 1.00336 1.00336 7.49373 1.00336 15.5Z"/>
            <rect x="8.28247" y="8.98959" width="1" height="18" rx="0.5" transform="rotate(-45 8.28247 8.98959)"/>
            <rect x="21.0104" y="8.28247" width="1" height="18" rx="0.5" transform="rotate(45 21.0104 8.28247)"/>
        </symbol>

        <symbol id="icon-zoom" viewBox="0 0 30 30" xmlns="http://www.w3.org/2000/svg">
            <path d="M10.143 0.0304376C8.13074 0.224167 6.3296 0.875414 4.77459 1.95494C0.726376 4.77102 -0.974849 9.85185 0.556406 14.5221C1.61826 17.7664 4.21137 20.4007 7.44994 21.5094C8.79935 21.973 9.93766 22.1372 11.4628 22.0903C13.0821 22.0434 14.3377 21.7324 15.8513 21.005L16.6609 20.6178L21.2489 25.2C23.7716 27.7228 25.9307 29.8291 26.0422 29.8876C26.3413 30.046 26.9926 30.0341 27.3036 29.8699C27.6438 29.6881 29.6445 27.6463 29.7617 27.3649C29.8909 27.0539 29.879 26.5376 29.7325 26.215C29.6445 26.0097 28.5768 24.9125 25.0623 21.3982L20.5099 16.8395L20.8971 16.0884C21.6775 14.5513 22.0412 13.1608 22.0939 11.4888C22.1466 9.93409 21.9824 8.80766 21.513 7.44638C19.976 2.97567 15.6694 -0.0691674 10.9819 0.00119657C10.6358 0.00119657 10.2545 0.0188625 10.143 0.0304376ZM12.7949 2.92297C14.4199 3.26322 15.8339 4.03174 17.0073 5.21118C18.2744 6.47834 19.0606 7.99802 19.3658 9.75803C19.5184 10.6499 19.4889 12.0344 19.307 12.8674C18.5501 16.241 15.9862 18.7287 12.5777 19.3915C11.7915 19.5441 10.2545 19.5264 9.45638 19.3623C6.26472 18.6818 3.77122 16.3113 2.98533 13.2196C2.26372 10.38 3.02646 7.46404 5.03868 5.36957C6.40575 3.93792 8.08962 3.08747 10.0842 2.8057C10.6885 2.72346 12.1436 2.78225 12.7949 2.92297Z"/>
        </symbol>

    </defs>
</svg>