<svg>

<sybmol id="icon-edti">
    <g clip-path="url(#clip0_102_5)">
        <path d="M23.3899 11.8233C23.3899 11.6908 23.4974 11.5832 23.63 11.5832C23.7625 11.5832 23.8701 11.6908 23.8701 11.8234V25.3383C23.8701 27.3066 22.2679 28.9088 20.2995 28.9088H4.07065C2.10219 28.9088 0.5 27.3066 0.5 25.3383V9.10936C0.5 7.14098 2.10218 5.53883 4.07065 5.53883H20.2995C20.4321 5.53883 20.5396 5.64635 20.5396 5.77893C20.5396 5.91151 20.4321 6.01902 20.2995 6.01902H4.07065C2.36634 6.01902 0.980252 7.40502 0.980252 9.10936V25.3383C0.980252 27.0426 2.36633 28.4286 4.07065 28.4286H20.2995C22.0038 28.4286 23.3899 27.0426 23.3899 25.3383V11.8233Z"
        stroke="black"></path>
        <path d="M28.9761 1.61377L28.9762 1.61395C29.3146 1.95195 29.5 2.39937 29.5 2.87776C29.5 3.35615 29.3146 3.80357 28.9761 4.14211L16.2998 16.818C16.3 16.8178 16.2999 16.8179 16.2994 16.8184C16.297 16.8207 16.2866 16.8308 16.2699 16.8462C16.2506 16.864 16.2258 16.8864 16.1992 16.9091C16.172 16.9323 16.1468 16.9525 16.1262 16.9675C16.119 16.9728 16.1136 16.9765 16.11 16.9789L12.1776 18.7292C12.1456 18.7434 12.1126 18.7501 12.0802 18.7501C12.0173 18.7501 11.9559 18.7255 11.9101 18.6797L11.9099 18.6795C11.8398 18.6095 11.82 18.5033 11.8605 18.4124L11.8606 18.4123L13.611 14.4797C13.6134 14.4761 13.6171 14.4707 13.6224 14.4634C13.6373 14.4429 13.6575 14.4177 13.6807 14.3906C13.7277 14.3354 13.7708 14.2911 13.7706 14.2913L13.4331 13.9539L13.7706 14.2913L26.4478 1.61377L26.4479 1.6137C27.1441 0.917175 28.2791 0.916811 28.9761 1.61377ZM15.8034 16.5896L15.8695 16.5602L15.9246 16.5132C15.9453 16.4956 15.9617 16.4787 15.974 16.4649L28.6366 3.8023C28.8827 3.55624 29.0198 3.22648 29.0198 2.87776C29.0198 2.52969 28.8833 2.19973 28.6368 1.95368C28.1368 1.45291 27.2879 1.45261 26.7872 1.95329C26.7872 1.9533 26.7872 1.95331 26.7872 1.95332L14.1246 14.6161C14.1098 14.6294 14.0917 14.6472 14.0729 14.6697L14.0285 14.723L14.0002 14.7865L13.0831 16.8466L12.5534 18.0364L13.7432 17.5067L15.8034 16.5896Z" stroke="black">
        </path>
    </g>
    <defs>
    <clipPath id="clip0_102_5">
    <rect width="30" height="30" fill="white"></rect>
    </clipPath>
    </defs>
</sybmol>

<symbol id="icon-delete" width="30" height="30" viewBox="0 0 30 30" xmlns="http://www.w3.org/2000/svg" fill="none">
    <line x1="6.78213" y1="6.07502" x2="23.925" y2="23.2179" stroke="black"/>
    <line x1="6.07502" y1="23.2179" x2="23.2179" y2="6.07502" stroke="black"/>
    <circle cx="15" cy="15" r="14.5" stroke="black"/>
</symbol>

</svg>