<svg>
    <defs>
        <symbol id="icon-delete" xmlns="http://www.w3.org/2000/svg"  viewBox="0 0 24 24">
            <path d="M 10 2 L 9 3 L 3 3 L 3 5 L 4.109375 5 L 5.8925781 20.255859 L 5.8925781 20.263672 C 6.023602 21.250335 6.8803207 22 7.875 22 L 16.123047 22 C 17.117726 22 17.974445 21.250322 18.105469 20.263672 L 18.107422 20.255859 L 19.890625 5 L 21 5 L 21 3 L 15 3 L 14 2 L 10 2 z M 6.125 5 L 17.875 5 L 16.123047 20 L 7.875 20 L 6.125 5 z"/>
        </symbol>
        <symbol id="icon-edit" viewBox="0 0 30 30" fill="none" xmlns="http://www.w3.org/2000/svg">
            <path d="M23.3899 11.8233C23.3899 11.6908 23.4974 11.5832 23.63 11.5832C23.7625 11.5832 23.8701 11.6908 23.8701 11.8234V25.3383C23.8701 27.3066 22.2679 28.9088 20.2995 28.9088H4.07065C2.10219 28.9088 0.5 27.3066 0.5 25.3383V9.10936C0.5 7.14098 2.10218 5.53883 4.07065 5.53883H20.2995C20.4321 5.53883 20.5396 5.64635 20.5396 5.77893C20.5396 5.91151 20.4321 6.01902 20.2995 6.01902H4.07065C2.36634 6.01902 0.980252 7.40502 0.980252 9.10936V25.3383C0.980252 27.0426 2.36633 28.4286 4.07065 28.4286H20.2995C22.0038 28.4286 23.3899 27.0426 23.3899 25.3383V11.8233Z"/>
            <path d="M28.9761 1.61377L28.9762 1.61395C29.3146 1.95195 29.5 2.39937 29.5 2.87776C29.5 3.35615 29.3146 3.80357 28.9761 4.14211L16.2998 16.818C16.3 16.8178 16.2999 16.8179 16.2994 16.8184C16.297 16.8207 16.2866 16.8308 16.2699 16.8462C16.2506 16.864 16.2258 16.8864 16.1992 16.9091C16.172 16.9323 16.1468 16.9525 16.1262 16.9675C16.119 16.9728 16.1136 16.9765 16.11 16.9789L12.1776 18.7292C12.1456 18.7434 12.1126 18.7501 12.0802 18.7501C12.0173 18.7501 11.9559 18.7255 11.9101 18.6797L11.9099 18.6795C11.8398 18.6095 11.82 18.5033 11.8605 18.4124L11.8606 18.4123L13.611 14.4797C13.6134 14.4761 13.6171 14.4707 13.6224 14.4634C13.6373 14.4429 13.6575 14.4177 13.6807 14.3906C13.7277 14.3354 13.7708 14.2911 13.7706 14.2913L13.4331 13.9539L13.7706 14.2913L26.4478 1.61377L26.4479 1.6137C27.1441 0.917175 28.2791 0.916811 28.9761 1.61377ZM15.8034 16.5896L15.8695 16.5602L15.9246 16.5132C15.9453 16.4956 15.9617 16.4787 15.974 16.4649L28.6366 3.8023C28.8827 3.55624 29.0198 3.22648 29.0198 2.87776C29.0198 2.52969 28.8833 2.19973 28.6368 1.95368C28.1368 1.45291 27.2879 1.45261 26.7872 1.95329C26.7872 1.9533 26.7872 1.95331 26.7872 1.95332L14.1246 14.6161C14.1098 14.6294 14.0917 14.6472 14.0729 14.6697L14.0285 14.723L14.0002 14.7865L13.0831 16.8466L12.5534 18.0364L13.7432 17.5067L15.8034 16.5896Z"/>                
        </symbol>

        <symbol id="icon-checked" viewBox="0 0 30 30" xmlns="http://www.w3.org/2000/svg">
            <rect x="8.34607" y="21.719" width="23.301" height="2.91262" rx="1.45631" transform="rotate(-45 8.34607 21.719)" />
            <rect x="10.2592" y="23.7785" width="8.73786" height="2.91262" rx="1.45631" transform="rotate(-135 10.2592 23.7785)"/>
        </symbol>

        <symbol id="icon-checkbox" viewBox="0 0 30 30" xmlns="http://www.w3.org/2000/svg">
            <!-- <path d="M0.58252 1.45631C0.58252 0.652013 1.23453 0 2.03883 0H28.2524C29.0567 0 29.7087 0.652013 29.7087 1.45631V1.45631H0.58252V1.45631Z" /> -->
            <path d="M28.5437 29.1262L28.5437 7.62939e-06V7.62939e-06C29.348 7.62939e-06 30 0.65202 30 1.45632V27.6699C30 28.4742 29.348 29.1262 28.5437 29.1262V29.1262Z" />
            <path d="M0.58252 27.6699H29.7087V27.6699C29.7087 28.4742 29.0567 29.1262 28.2524 29.1262H2.03883C1.23453 29.1262 0.58252 28.4742 0.58252 27.6699V27.6699Z" />
            <!-- <path d="M2.03883 29.1262C1.23453 29.1262 0.58252 28.4742 0.58252 27.6699L0.58252 1.58253C0.58252 0.778232 1.23453 0.126221 2.03883 0.126221V0.126221L2.03883 29.1262V29.1262Z" /> -->
        </symbol>

        <symbol id="icon-plus" viewBox="0 0 24 24" xmlns="http://www.w3.org/2000/svg">
            <path d="M12 2a9.95 9.95 0 014.473 1.055l-.895 1.791A7.949 7.949 0 0012 4c-4.41 0-8 3.59-8 8s3.59 8 8 8c1.09 0 2.129-.22 3.076-.615l.771 1.847A9.962 9.962 0 0112 22C6.48 22 2 17.52 2 12S6.48 2 12 2zm9 10v3h3v2h-3v3h-2v-3h-3v-2h3v-3h2zm-.4-8.4L22 5 11 16l-4-4 1.4-1.4 2.6 2.6 9.6-9.6z"/>
        </symbol>

    </defs>
</svg>