<svg>
    <defs>
        <symbol id="icon-delete" xmlns="http://www.w3.org/2000/svg"  viewBox="0 0 26 30">
            <path d="M21 30H5C4.20435 30 3.44129 29.6839 2.87868 29.1213C2.31607 28.5587 2 27.7956 2 27V8C2 7.73478 2.10536 7.48043 2.29289 7.29289C2.48043 7.10536 2.73478 7 3 7C3.26522 7 3.51957 7.10536 3.70711 7.29289C3.89464 7.48043 4 7.73478 4 8V27C4 27.2652 4.10536 27.5196 4.29289 27.7071C4.48043 27.8946 4.73478 28 5 28H21C21.2652 28 21.5196 27.8946 21.7071 27.7071C21.8946 27.5196 22 27.2652 22 27V8C22 7.73478 22.1054 7.48043 22.2929 7.29289C22.4804 7.10536 22.7348 7 23 7C23.2652 7 23.5196 7.10536 23.7071 7.29289C23.8946 7.48043 24 7.73478 24 8V27C24 27.7956 23.6839 28.5587 23.1213 29.1213C22.5587 29.6839 21.7956 30 21 30V30Z"/>
            <path d="M25 6H1C0.734784 6 0.48043 5.89464 0.292893 5.70711C0.105357 5.51957 0 5.26522 0 5C0 4.73478 0.105357 4.48043 0.292893 4.29289C0.48043 4.10536 0.734784 4 1 4H25C25.2652 4 25.5196 4.10536 25.7071 4.29289C25.8946 4.48043 26 4.73478 26 5C26 5.26522 25.8946 5.51957 25.7071 5.70711C25.5196 5.89464 25.2652 6 25 6Z" />
            <path d="M17 6C16.7348 6 16.4804 5.89464 16.2929 5.70711C16.1054 5.51957 16 5.26522 16 5V2H10V5C10 5.26522 9.89464 5.51957 9.70711 5.70711C9.51957 5.89464 9.26522 6 9 6C8.73478 6 8.48043 5.89464 8.29289 5.70711C8.10536 5.51957 8 5.26522 8 5V1C8 0.734784 8.10536 0.48043 8.29289 0.292893C8.48043 0.105357 8.73478 0 9 0H17C17.2652 0 17.5196 0.105357 17.7071 0.292893C17.8946 0.48043 18 0.734784 18 1V5C18 5.26522 17.8946 5.51957 17.7071 5.70711C17.5196 5.89464 17.2652 6 17 6Z"/>
            <path d="M13 25C12.7348 25 12.4804 24.8946 12.2929 24.7071C12.1054 24.5196 12 24.2652 12 24V10C12 9.73478 12.1054 9.48043 12.2929 9.29289C12.4804 9.10536 12.7348 9 13 9C13.2652 9 13.5196 9.10536 13.7071 9.29289C13.8946 9.48043 14 9.73478 14 10V24C14 24.2652 13.8946 24.5196 13.7071 24.7071C13.5196 24.8946 13.2652 25 13 25Z"/>
            <path d="M18 23C17.7348 23 17.4804 22.8946 17.2929 22.7071C17.1054 22.5196 17 22.2652 17 22V12C17 11.7348 17.1054 11.4804 17.2929 11.2929C17.4804 11.1054 17.7348 11 18 11C18.2652 11 18.5196 11.1054 18.7071 11.2929C18.8946 11.4804 19 11.7348 19 12V22C19 22.2652 18.8946 22.5196 18.7071 22.7071C18.5196 22.8946 18.2652 23 18 23Z"/>
            <path d="M8 23C7.73478 23 7.48043 22.8946 7.29289 22.7071C7.10536 22.5196 7 22.2652 7 22V12C7 11.7348 7.10536 11.4804 7.29289 11.2929C7.48043 11.1054 7.73478 11 8 11C8.26522 11 8.51957 11.1054 8.70711 11.2929C8.89464 11.4804 9 11.7348 9 12V22C9 22.2652 8.89464 22.5196 8.70711 22.7071C8.51957 22.8946 8.26522 23 8 23Z"/>
        </symbol>

        <symbol id="icon-checked" viewBox="0 0 30 30" xmlns="http://www.w3.org/2000/svg">
            <rect x="8.34607" y="21.719" width="23.301" height="2.91262" rx="1.45631" transform="rotate(-45 8.34607 21.719)" />
            <rect x="10.2592" y="23.7785" width="8.73786" height="2.91262" rx="1.45631" transform="rotate(-135 10.2592 23.7785)"/>
        </symbol>

        <symbol id="icon-checkbox" viewBox="0 0 30 30" xmlns="http://www.w3.org/2000/svg">
            <!-- <path d="M0.58252 1.45631C0.58252 0.652013 1.23453 0 2.03883 0H28.2524C29.0567 0 29.7087 0.652013 29.7087 1.45631V1.45631H0.58252V1.45631Z" /> -->
            <path d="M28.5437 29.1262L28.5437 7.62939e-06V7.62939e-06C29.348 7.62939e-06 30 0.65202 30 1.45632V27.6699C30 28.4742 29.348 29.1262 28.5437 29.1262V29.1262Z" />
            <path d="M0.58252 27.6699H29.7087V27.6699C29.7087 28.4742 29.0567 29.1262 28.2524 29.1262H2.03883C1.23453 29.1262 0.58252 28.4742 0.58252 27.6699V27.6699Z" />
            <!-- <path d="M2.03883 29.1262C1.23453 29.1262 0.58252 28.4742 0.58252 27.6699L0.58252 1.58253C0.58252 0.778232 1.23453 0.126221 2.03883 0.126221V0.126221L2.03883 29.1262V29.1262Z" /> -->
        </symbol>

        <symbol id="icon-plus" viewBox="0 0 24 24" xmlns="http://www.w3.org/2000/svg">
            <path d="M12 2a9.95 9.95 0 014.473 1.055l-.895 1.791A7.949 7.949 0 0012 4c-4.41 0-8 3.59-8 8s3.59 8 8 8c1.09 0 2.129-.22 3.076-.615l.771 1.847A9.962 9.962 0 0112 22C6.48 22 2 17.52 2 12S6.48 2 12 2zm9 10v3h3v2h-3v3h-2v-3h-3v-2h3v-3h2zm-.4-8.4L22 5 11 16l-4-4 1.4-1.4 2.6 2.6 9.6-9.6z"/>
        </symbol>

        <symbol id="icon-edit" viewBox="0 0 30 25" xmlns="http://www.w3.org/2000/svg">
            <path d="M11.3315 0.0439445C8.40962 0.504286 6.10791 2.71648 5.56445 5.58083C5.411 6.40561 5.46854 7.7227 5.68593 8.56665C5.96725 9.6216 6.61301 10.8428 7.30352 11.6164C7.46975 11.7954 7.58484 11.9553 7.56566 11.9809C7.54648 12 7.30991 12.1087 7.04138 12.2238C3.9021 13.592 1.3958 16.5395 0.455932 19.9729C0.0723138 21.3731 -0.106708 23.1186 0.0659202 23.726C0.187399 24.1288 0.532656 24.4868 0.916274 24.5891C1.07612 24.6338 2.64256 24.6594 5.5133 24.6594H9.86097L10.2126 24.4804C10.5003 24.3397 10.5898 24.2502 10.7369 23.9625C11.0182 23.3999 10.9479 22.7989 10.5451 22.3513C10.1487 21.9102 10.1231 21.9102 6.26136 21.9102H2.85355L2.88551 21.7631C3.08372 20.8424 3.21159 20.3949 3.42897 19.8386C4.15146 17.9973 5.60281 16.2646 7.30991 15.2032C8.85078 14.2506 10.2254 13.8478 12.3481 13.7327C13.646 13.6624 14.3877 13.4898 15.2956 13.0614C17.6292 11.9553 19.087 9.78784 19.2021 7.23039C19.2852 5.52968 18.7993 4.008 17.7443 2.6014C16.8556 1.42497 15.4874 0.52986 14.0104 0.165424C13.4222 0.01837 11.9389 -0.0519599 11.3315 0.0439445ZM13.2752 2.95944C14.0232 3.13207 14.5923 3.45814 15.1677 4.03357C15.7495 4.61539 16.0692 5.18442 16.2546 5.95805C16.3953 6.55905 16.3505 7.64597 16.1587 8.22779C15.3467 10.7597 12.2586 11.821 10.0016 10.3441C8.44159 9.3275 7.80222 7.37744 8.42241 5.52329C8.8316 4.3085 9.90573 3.31748 11.1781 2.98501C11.7535 2.83796 12.6997 2.81878 13.2752 2.95944Z"/>
            <path d="M24.7837 8.36844C24.6046 8.4132 23.6008 9.39142 20.0652 12.9143C16.9067 16.0664 15.5257 17.4858 15.4234 17.6904C15.3403 17.8502 14.8799 19.1673 14.4004 20.6186C13.4477 23.4894 13.4477 23.4638 13.7418 23.9881C13.9273 24.3206 14.3109 24.5763 14.7584 24.6722L15.1229 24.7489L17.6036 23.9242C18.9654 23.4766 20.257 23.029 20.468 22.9331C20.8132 22.7733 21.2927 22.313 25.3655 18.2274C29.6876 13.8861 29.8858 13.6816 29.9561 13.3811C30.0392 13.0358 30.0073 12.7864 29.8346 12.4476C29.7707 12.3261 28.8564 11.3735 27.8078 10.3249C26.2222 8.75206 25.8578 8.41959 25.6468 8.36205C25.3463 8.27893 25.0905 8.27893 24.7837 8.36844ZM25.9984 12.3517L26.7337 13.0869L23.0638 16.7569L19.4002 20.4204L18.3325 20.7529C17.7507 20.9319 17.252 21.079 17.2328 21.079C17.2072 21.079 17.3415 20.5995 17.5269 20.0176L17.8593 18.9563L21.5293 15.2864C23.5497 13.266 25.212 11.6164 25.2312 11.6164C25.2504 11.6164 25.5956 11.9489 25.9984 12.3517Z"/>
        </symbol>

        <symbol id="icon-close" viewBox="0 0 31 31" xmlns="http://www.w3.org/2000/svg">
            <path d="M31 15.5C31 24.0604 24.0604 31 15.5 31C6.93959 31 0 24.0604 0 15.5C0 6.93959 6.93959 0 15.5 0C24.0604 0 31 6.93959 31 15.5ZM1.00336 15.5C1.00336 23.5063 7.49373 29.9966 15.5 29.9966C23.5063 29.9966 29.9966 23.5063 29.9966 15.5C29.9966 7.49373 23.5063 1.00336 15.5 1.00336C7.49373 1.00336 1.00336 7.49373 1.00336 15.5Z"/>
            <rect x="8.28247" y="8.98959" width="1" height="18" rx="0.5" transform="rotate(-45 8.28247 8.98959)"/>
            <rect x="21.0104" y="8.28247" width="1" height="18" rx="0.5" transform="rotate(45 21.0104 8.28247)"/>
        </symbol>

        <symbol id="icon-zoom" viewBox="0 0 30 30" xmlns="http://www.w3.org/2000/svg">
            <path d="M13.963 0.0582047C13.0197 0.181252 11.9005 0.556252 11.0509 1.04258C7.08411 3.31016 5.82434 8.43125 8.297 12.2691C8.672 12.8551 9.29309 13.5758 9.77356 13.9742C9.99622 14.1617 10.1661 14.3316 10.1368 14.3492C10.1134 14.3668 9.7677 14.5133 9.36926 14.6656C7.5177 15.3922 5.90637 16.4293 4.45325 17.8355C2.58411 19.6344 1.31849 21.6441 0.509892 24.0816C-0.128779 26.0094 -0.158076 26.9352 0.369267 28.0191C0.71497 28.7223 1.38294 29.3668 2.09778 29.6832C2.80091 29.9996 2.70716 29.9996 9.46887 29.982L15.7267 29.9645L15.9669 29.8063C16.3302 29.566 16.4825 29.2789 16.4825 28.8219C16.4825 28.3648 16.3302 28.0777 15.9669 27.8375L15.7267 27.6793L9.45715 27.65C3.75013 27.6207 3.16419 27.609 3.00598 27.5211C2.61341 27.3102 2.33216 26.859 2.33216 26.4547C2.33216 26.191 2.62513 25.066 2.8595 24.4273C3.11731 23.7125 3.79114 22.3707 4.18958 21.7789C5.51966 19.7926 7.25989 18.2633 9.32825 17.2555C11.0861 16.3941 12.6154 16.025 14.7833 15.9313C15.463 15.902 16.2247 15.8375 16.4825 15.7906C18.9142 15.316 21.0118 13.7223 22.1251 11.5016C22.3712 11.0094 22.6876 10.0836 22.8165 9.45664C22.963 8.7418 22.9689 7.2125 22.8224 6.48594C22.3009 3.85508 20.5489 1.69297 18.0997 0.632423C16.8458 0.0933609 15.3458 -0.111717 13.963 0.0582047ZM16.3419 2.50742C17.3907 2.77695 18.2111 3.25156 18.9728 4.03086C19.7286 4.79258 20.215 5.65977 20.4786 6.70859C20.6193 7.26523 20.6193 8.65977 20.4786 9.21641C20.0392 10.9625 18.797 12.4508 17.2091 13.1246C13.9864 14.4957 10.3595 12.6559 9.49817 9.21641C9.35754 8.65977 9.35754 7.26523 9.49817 6.70859C9.7677 5.64219 10.2482 4.78672 11.0275 4.00156C11.9532 3.08164 12.8146 2.64805 14.2853 2.37266C14.631 2.3082 15.9083 2.39024 16.3419 2.50742Z"/>
            <path d="M19.629 18.3395C19.3536 18.4215 18.9904 18.8023 18.9083 19.107C18.7736 19.6285 18.9786 20.1734 19.424 20.4488L19.6466 20.5894H24.422H29.1974L29.42 20.4488C29.5431 20.3785 29.7072 20.2203 29.7833 20.1031C29.9064 19.9215 29.9298 19.8219 29.9298 19.4469C29.9298 19.0719 29.9064 18.9723 29.7833 18.7906C29.7072 18.6734 29.5431 18.5152 29.42 18.4449L29.1974 18.3043L24.5099 18.2926C21.6564 18.2867 19.7462 18.3043 19.629 18.3395Z"/>
            <path d="M19.629 23.027C19.3536 23.109 18.9904 23.4898 18.9083 23.7945C18.7736 24.316 18.9786 24.8609 19.424 25.1363L19.6466 25.2769H24.422H29.1974L29.42 25.1363C29.5431 25.066 29.7072 24.9078 29.7833 24.7906C29.9064 24.609 29.9298 24.5094 29.9298 24.1344C29.9298 23.7594 29.9064 23.6598 29.7833 23.4781C29.7072 23.3609 29.5431 23.2027 29.42 23.1324L29.1974 22.9918L24.5099 22.9801C21.6564 22.9742 19.7462 22.9918 19.629 23.027Z"/>
            <path d="M19.629 27.7145C19.3536 27.7965 18.9904 28.1773 18.9083 28.482C18.7736 29.0035 18.9786 29.5484 19.424 29.8238L19.6466 29.9644H24.422H29.1974L29.42 29.8238C29.5431 29.7535 29.7072 29.5953 29.7833 29.4781C29.9064 29.2965 29.9298 29.1969 29.9298 28.8219C29.9298 28.4469 29.9064 28.3473 29.7833 28.1656C29.7072 28.0484 29.5431 27.8902 29.42 27.8199L29.1974 27.6793L24.5099 27.6676C21.6564 27.6617 19.7462 27.6793 19.629 27.7145Z"/>
        </symbol>

        <symbol id="icon-phone" viewBox="0 0 30 30" xmlns="http://www.w3.org/2000/svg">
            <path d="M2.31818 2.31818C1.02273 3.61364 0 5.18182 0 5.86364C0.0681818 12.8864 17.1136 29.9318 24.0682 30C25.6364 30 30 25.7727 30 24.2727C30 23.6591 28.2955 22.0909 26.25 20.6591C22.5 18.2045 22.4318 18.2045 20.1818 19.2955L17.9318 20.3182L13.7727 16.1591L9.68182 11.9318L10.7727 9.75C11.7955 7.56818 11.7955 7.5 9.34091 3.75C7.90909 1.70454 6.34091 -8.9407e-07 5.72727 -8.9407e-07C5.11364 -8.9407e-07 3.61364 1.02273 2.31818 2.31818Z" />
        </symbol>

        <symbol id="icon-sms" viewBox="0 0 30 30" xmlns="http://www.w3.org/2000/svg">
            <path d="M1.38462 1.49621C-0.461538 3.49117 -0.461538 21.4457 1.38462 23.4407C2.19231 24.3135 3.69231 24.9369 4.84615 24.9369C7.26923 24.9369 7.5 26.3084 5.53846 28.4281C3.11538 31.0464 7.38462 30.1737 10.7308 27.4306C12.9231 25.5603 15.3462 24.9369 20.4231 24.9369C24.2308 24.9369 27.8077 24.3135 28.6154 23.4407C29.4231 22.5679 30 18.2039 30 12.4685C30 6.73296 29.4231 2.36901 28.6154 1.49621C26.7692 -0.498738 3.23077 -0.498738 1.38462 1.49621ZM9.92308 11.3463C11.0769 13.4659 8.42308 15.8349 6.80769 14.0894C5.42308 12.5931 6.34615 9.97476 8.07692 9.97476C8.65385 9.97476 9.46154 10.5982 9.92308 11.3463ZM16.8462 11.3463C18 13.4659 15.3462 15.8349 13.7308 14.0894C12.3462 12.5931 13.2692 9.97476 15 9.97476C15.5769 9.97476 16.3846 10.5982 16.8462 11.3463ZM23.7692 11.3463C24.9231 13.4659 22.2692 15.8349 20.6538 14.0894C19.2692 12.5931 20.1923 9.97476 21.9231 9.97476C22.5 9.97476 23.3077 10.5982 23.7692 11.3463Z"/>
        </symbol>

    </defs>
</svg>