<svg>
    <defs>
        <symbol id="icon-delete" xmlns="http://www.w3.org/2000/svg"  viewBox="0 0 24 24">
            <path d="M 10 2 L 9 3 L 3 3 L 3 5 L 4.109375 5 L 5.8925781 20.255859 L 5.8925781 20.263672 C 6.023602 21.250335 6.8803207 22 7.875 22 L 16.123047 22 C 17.117726 22 17.974445 21.250322 18.105469 20.263672 L 18.107422 20.255859 L 19.890625 5 L 21 5 L 21 3 L 15 3 L 14 2 L 10 2 z M 6.125 5 L 17.875 5 L 16.123047 20 L 7.875 20 L 6.125 5 z"/>
        </symbol>

        <symbol id="icon-checked" viewBox="0 0 30 30" xmlns="http://www.w3.org/2000/svg">
            <rect x="8.34607" y="21.719" width="23.301" height="2.91262" rx="1.45631" transform="rotate(-45 8.34607 21.719)" />
            <rect x="10.2592" y="23.7785" width="8.73786" height="2.91262" rx="1.45631" transform="rotate(-135 10.2592 23.7785)"/>
        </symbol>

        <symbol id="icon-checkbox" viewBox="0 0 30 30" xmlns="http://www.w3.org/2000/svg">
            <!-- <path d="M0.58252 1.45631C0.58252 0.652013 1.23453 0 2.03883 0H28.2524C29.0567 0 29.7087 0.652013 29.7087 1.45631V1.45631H0.58252V1.45631Z" /> -->
            <path d="M28.5437 29.1262L28.5437 7.62939e-06V7.62939e-06C29.348 7.62939e-06 30 0.65202 30 1.45632V27.6699C30 28.4742 29.348 29.1262 28.5437 29.1262V29.1262Z" />
            <path d="M0.58252 27.6699H29.7087V27.6699C29.7087 28.4742 29.0567 29.1262 28.2524 29.1262H2.03883C1.23453 29.1262 0.58252 28.4742 0.58252 27.6699V27.6699Z" />
            <!-- <path d="M2.03883 29.1262C1.23453 29.1262 0.58252 28.4742 0.58252 27.6699L0.58252 1.58253C0.58252 0.778232 1.23453 0.126221 2.03883 0.126221V0.126221L2.03883 29.1262V29.1262Z" /> -->
        </symbol>

        <symbol id="icon-plus" viewBox="0 0 24 24" xmlns="http://www.w3.org/2000/svg">
            <path d="M12 2a9.95 9.95 0 014.473 1.055l-.895 1.791A7.949 7.949 0 0012 4c-4.41 0-8 3.59-8 8s3.59 8 8 8c1.09 0 2.129-.22 3.076-.615l.771 1.847A9.962 9.962 0 0112 22C6.48 22 2 17.52 2 12S6.48 2 12 2zm9 10v3h3v2h-3v3h-2v-3h-3v-2h3v-3h2zm-.4-8.4L22 5 11 16l-4-4 1.4-1.4 2.6 2.6 9.6-9.6z"/>
        </symbol>

        <symbol id="icon-edit" viewBox="0 0 39 30" xmlns="http://www.w3.org/2000/svg">
            <path d="M2.80899 26.5C3.80904 19.5 6.39586 18 11.3091 14.5L14.5907 16.4485L12.8091 17.5L9.98937 18.7651L6.39583 23.8869L5.80909 27L4.4206 29.6904L3.30909 29L2.80899 26.5Z"/>
            <path d="M2.80908 27C2.80908 27 12.7757 27 14.5091 27C16.2424 27 16.2424 30 14.5091 30C12.7757 30 2.80908 30 2.80908 30V28.5V27Z"/>
            <path fill-rule="evenodd" clip-rule="evenodd" d="M19.3091 28V29L20.3091 30L27.8091 28L38.8091 16.5V15L33.8091 10H32.8091L21.3091 21.5L19.3091 28ZM26.3091 25L23.3091 25.5L24.3091 23L33.3091 14L35 15.5L26.3091 25Z"/>
        <path d="M26 8.5C26 13.1944 22.1944 17 17.5 17C12.8056 17 9 13.1944 9 8.5C9 3.80558 12.8056 0 17.5 0C22.1944 0 26 3.80558 26 8.5ZM11.4478 8.5C11.4478 11.8426 14.1574 14.5522 17.5 14.5522C20.8426 14.5522 23.5522 11.8426 23.5522 8.5C23.5522 5.15744 20.8426 2.44775 17.5 2.44775C14.1574 2.44775 11.4478 5.15744 11.4478 8.5Z"/>
        </symbol>

        <symbol id="icon-close" viewBox="0 0 31 31" xmlns="http://www.w3.org/2000/svg">
            <path d="M31 15.5C31 24.0604 24.0604 31 15.5 31C6.93959 31 0 24.0604 0 15.5C0 6.93959 6.93959 0 15.5 0C24.0604 0 31 6.93959 31 15.5ZM1.00336 15.5C1.00336 23.5063 7.49373 29.9966 15.5 29.9966C23.5063 29.9966 29.9966 23.5063 29.9966 15.5C29.9966 7.49373 23.5063 1.00336 15.5 1.00336C7.49373 1.00336 1.00336 7.49373 1.00336 15.5Z"/>
            <rect x="8.28247" y="8.98959" width="1" height="18" rx="0.5" transform="rotate(-45 8.28247 8.98959)"/>
            <rect x="21.0104" y="8.28247" width="1" height="18" rx="0.5" transform="rotate(45 21.0104 8.28247)"/>
        </symbol>

    </defs>
</svg>